<svg width="163" height="120" viewBox="0 0 163 120" fill="none" xmlns="http://www.w3.org/2000/svg">
<path d="M163 60C163 93.138 136.138 120 103 120C69.8632 120 43 93.138 43 60C43 26.8626 69.8632 1.17773e-07 103 0C136.138 0 163 26.8626 163 60Z" fill="url(#paint0_linear_225_601)"/>
<path d="M163 60C163 93.138 137.929 120 107 120C76.0723 120 51 93.138 51 60C51 26.8626 76.0723 1.17773e-07 107 0C137.929 0 163 26.8626 163 60Z" fill="url(#paint1_linear_225_601)"/>
<path d="M133.283 30.2556H80.2568V43.9716H100.369V64.1316H113.171V43.9716H133.283V30.2556Z" fill="#E4E1EF"/>
<path d="M106.891 66.2791C90.2532 66.2791 76.7645 63.4579 76.7645 59.9773C76.7645 56.4973 90.2527 53.6755 106.891 53.6755C123.528 53.6755 137.017 56.4973 137.017 59.9773C137.017 63.4579 123.528 66.2791 106.891 66.2791ZM140.718 61.0279C140.718 56.5399 125.573 52.9021 106.891 52.9021C88.2092 52.9021 73.0635 56.5399 73.0635 61.0279C73.0635 64.9801 84.8072 68.2729 100.369 69.0025V97.9429H113.17V69.0139C128.851 68.3071 140.718 65.0005 140.718 61.0279Z" fill="#E4E1EF"/>
<circle cx="11" cy="16" r="11" fill="#F3F2FD"/>
<defs>
<linearGradient id="paint0_linear_225_601" x1="103" y1="0" x2="103" y2="120" gradientUnits="userSpaceOnUse">
<stop stop-color="#F0EFF4"/>
<stop offset="1" stop-color="#E8E7F3"/>
</linearGradient>
<linearGradient id="paint1_linear_225_601" x1="107" y1="0" x2="107" y2="120" gradientUnits="userSpaceOnUse">
<stop stop-color="#F7F7FB"/>
<stop offset="1" stop-color="#F0EFFD"/>
</linearGradient>
</defs>
</svg>
