<svg xmlns="http://www.w3.org/2000/svg" width="142" height="142" viewBox="0 0 142 142" fill="none">
  <g filter="url(#filter0_d_4193_204505)">
    <path d="M16 67C16 36.6243 40.6243 12 71 12C101.376 12 126 36.6243 126 67C126 97.3757 101.376 122 71 122C40.6243 122 16 97.3757 16 67Z" fill="white"/>
  </g>
  <g filter="url(#filter1_i_4193_204505)">
    <path fill-rule="evenodd" clip-rule="evenodd" d="M43.2127 34.7152C36.9535 39.0684 26.3928 50.0528 24.515 66.2336C22.0634 87.359 36.7729 111.457 62.3545 115.385C82.8198 118.527 98.3109 106.574 103.498 100.204C115.01 84.9174 113.731 72.2847 113.731 72.2847C113.731 72.2847 112.558 78.7603 108.082 82.582C102.585 87.2748 98.7017 87.3591 97.849 87.3591C95.5395 85.4837 89.5989 80.6923 83.8857 77.8048C76.7441 74.1955 66.1917 68.1445 66.5115 62.1997C66.8341 56.2031 72.5871 53.6009 82.7132 54.344C83.033 54.3675 80.5814 58.8025 78.1298 60.8196C82.429 61.3858 92.2637 62.9428 95.9304 65.9152C99.5971 68.8877 98.7372 71.4001 97.849 72.2847C98.9504 72.3555 101.729 72.1361 104.031 70.6923C106.334 69.2486 107.478 67.543 107.762 66.8707C106.838 67.2599 104.799 67.7199 104.031 66.446C103.264 65.1721 103.427 63.9336 103.605 63.4736C100.407 63.0844 94.3102 61.584 95.504 58.6965C96.9963 55.0872 101.26 54.981 102.646 55.4056C104.031 55.8303 106.696 56.8918 107.016 62.6244C107.028 62.8436 107.314 62.6317 107.806 62.2664C108.948 61.4197 111.199 59.7494 113.731 60.7135C115.543 61.4036 115.259 65.3137 113.731 66.446C115.543 66.0922 120.233 63.6858 121.405 57.9534C121.492 57.5295 121.076 57.4779 120.251 57.3759C118.851 57.2026 116.273 56.8835 112.985 54.344C108.806 51.1168 107.62 50.1685 107.549 50.0977L107.762 46.1699C107.328 45.8935 106.861 45.5971 106.369 45.285C102.388 42.7599 96.798 39.2133 94.3315 37.0403C91.8009 34.8109 86.4438 28.4414 84.9516 15.9149C84.6652 13.511 83.6725 29.1846 87.0205 35.7664C87.6774 37.0579 73.5901 24.726 71.7781 19.2058C71.7093 18.9963 72.9069 27.0615 78.4496 34.3864C79.0004 35.1143 78.0893 34.9954 76.1669 34.7447C72.2017 34.2275 63.9341 33.1492 55.3195 37.7834C40.7167 45.6391 39.5442 59.8643 40.7167 66.446C41.5677 71.2231 43.2749 77.9111 52.1218 86.616C54.0053 88.4693 48.6044 93.3039 39.4376 87.3591C34.1081 83.9028 28.2457 78.3356 29.3116 63.4736C30.4387 47.7571 40.0384 37.2295 43.2127 34.7152ZM96.7831 44.8959L104.031 48.293L101.366 49.8853C100.834 49.1422 99.5971 47.4862 98.9149 46.8067C98.2327 46.1273 97.2094 45.2498 96.7831 44.8959Z" fill="url(#paint0_linear_4193_204505)"/>
  </g>
  <mask id="mask0_4193_204505" style="mask-type:alpha" maskUnits="userSpaceOnUse" x="24" y="15" width="98" height="101">
    <path fill-rule="evenodd" clip-rule="evenodd" d="M43.2127 34.7152C36.9535 39.0684 26.3928 50.0528 24.515 66.2336C22.0634 87.359 36.7729 111.457 62.3545 115.385C82.8198 118.527 98.3109 106.574 103.498 100.204C115.01 84.9174 113.731 72.2847 113.731 72.2847C113.731 72.2847 112.558 78.7603 108.082 82.582C102.585 87.2748 98.7017 87.3591 97.849 87.3591C95.5395 85.4837 89.5989 80.6923 83.8857 77.8048C76.7441 74.1955 66.1917 68.1445 66.5115 62.1997C66.8341 56.2031 72.5871 53.6009 82.7132 54.344C83.033 54.3675 80.5814 58.8025 78.1298 60.8196C82.429 61.3858 92.2637 62.9428 95.9304 65.9152C99.5971 68.8877 98.7372 71.4001 97.849 72.2847C98.9504 72.3555 101.729 72.1361 104.031 70.6923C106.334 69.2486 107.478 67.543 107.762 66.8707C106.838 67.2599 104.799 67.7199 104.031 66.446C103.264 65.1721 103.427 63.9336 103.605 63.4736C100.407 63.0844 94.3102 61.584 95.504 58.6965C96.9963 55.0872 101.26 54.981 102.646 55.4056C104.031 55.8303 106.696 56.8918 107.016 62.6244C107.028 62.8436 107.314 62.6317 107.806 62.2664C108.948 61.4197 111.199 59.7494 113.731 60.7135C115.543 61.4036 115.259 65.3137 113.731 66.446C115.543 66.0922 120.233 63.6858 121.405 57.9534C121.492 57.5295 121.076 57.4779 120.251 57.3759C118.851 57.2026 116.273 56.8835 112.985 54.344C108.806 51.1168 107.62 50.1685 107.549 50.0977L107.762 46.1699C107.328 45.8935 106.861 45.5971 106.369 45.285C102.388 42.7599 96.798 39.2133 94.3315 37.0403C91.8009 34.8109 86.4438 28.4414 84.9516 15.9149C84.6652 13.511 83.6725 29.1846 87.0205 35.7664C87.6774 37.0579 73.5901 24.726 71.7781 19.2058C71.7093 18.9963 72.9069 27.0615 78.4496 34.3864C79.0004 35.1143 78.0893 34.9954 76.1669 34.7447C72.2017 34.2275 63.9341 33.1492 55.3195 37.7834C40.7167 45.6391 39.5442 59.8643 40.7167 66.446C41.5677 71.2231 43.2749 77.9111 52.1218 86.616C54.0053 88.4693 48.6044 93.3039 39.4376 87.3591C34.1081 83.9028 28.2457 78.3356 29.3116 63.4736C30.4387 47.7571 40.0384 37.2295 43.2127 34.7152ZM96.7831 44.8959L104.031 48.293L101.366 49.8853C100.834 49.1422 99.5971 47.4862 98.9149 46.8067C98.2327 46.1273 97.2094 45.2498 96.7831 44.8959Z" fill="url(#paint1_linear_4193_204505)"/>
  </mask>
  <g mask="url(#mask0_4193_204505)">
    <path d="M69.4704 52.7508C74.339 51.9821 80.0944 53.421 82.9167 54.1667C81.0834 56.0001 67.142 56.4793 67.0362 61.5927C66.9492 65.7944 71.9613 71.1426 79.2076 74.6958C91.5906 80.768 96.4592 85.5618 98.1526 87.0532C105.004 93.0878 104.029 99.5369 104.029 99.5369C104.029 99.5369 101.262 103.776 95.335 107.719C89.4081 111.663 84.2917 113.292 84.2917 113.292C84.2917 113.292 95.6125 104.098 81.6418 92.8058C75.2747 87.6594 56.7699 74.8024 56.9815 65.5343C57.1737 57.1207 64.0727 53.603 69.4704 52.7508Z" fill="url(#paint2_linear_4193_204505)"/>
    <path d="M102.387 92.3928C100.792 89.4582 98.4968 87.9129 97.5833 87.1665C98.7892 87.1665 104.25 86.3152 109.074 81.6237C112.015 78.7633 113.307 74.2666 113.745 71.9209C113.855 74.2666 114.227 78.2118 112.473 83.6496C110.639 89.3352 107.537 95.5916 104.029 99.5367C104.029 97.4042 103.689 94.7886 102.387 92.3928Z" fill="url(#paint3_linear_4193_204505)"/>
    <g filter="url(#filter2_i_4193_204505)">
      <path d="M62.7881 95.8169C60.1408 93.3327 54.2516 88.6504 51.75 86.25C51.4284 93.4512 30.3201 89.357 29.4453 67.7534C28.6948 49.2209 38.7727 38.8427 44.1333 34.0771C37.0573 38.4191 24.9424 51.9743 24.2991 67.7534C23.7211 81.9325 28.266 93.2753 36.8429 101.853C45.9493 110.961 56.912 114.684 62.0939 115.39C64.0237 114.861 67.1248 111.278 68.0415 107.254C69.1753 102.277 64.9324 97.829 62.7881 95.8169Z" fill="url(#paint4_linear_4193_204505)"/>
    </g>
  </g>
  <defs>
    <filter id="filter0_d_4193_204505" x="0" y="0" width="142" height="142" filterUnits="userSpaceOnUse" color-interpolation-filters="sRGB">
      <feFlood flood-opacity="0" result="BackgroundImageFix"/>
      <feColorMatrix in="SourceAlpha" type="matrix" values="0 0 0 0 0 0 0 0 0 0 0 0 0 0 0 0 0 0 127 0" result="hardAlpha"/>
      <feOffset dy="4"/>
      <feGaussianBlur stdDeviation="8"/>
      <feComposite in2="hardAlpha" operator="out"/>
      <feColorMatrix type="matrix" values="0 0 0 0 0.815686 0 0 0 0 0.874824 0 0 0 0 0.929412 0 0 0 0.36 0"/>
      <feBlend mode="normal" in2="BackgroundImageFix" result="effect1_dropShadow_4193_204505"/>
      <feBlend mode="normal" in="SourceGraphic" in2="effect1_dropShadow_4193_204505" result="shape"/>
    </filter>
    <filter id="filter1_i_4193_204505" x="24.25" y="13.6665" width="97.1667" height="102.235" filterUnits="userSpaceOnUse" color-interpolation-filters="sRGB">
      <feFlood flood-opacity="0" result="BackgroundImageFix"/>
      <feBlend mode="normal" in="SourceGraphic" in2="BackgroundImageFix" result="shape"/>
      <feColorMatrix in="SourceAlpha" type="matrix" values="0 0 0 0 0 0 0 0 0 0 0 0 0 0 0 0 0 0 127 0" result="hardAlpha"/>
      <feOffset dy="-2"/>
      <feGaussianBlur stdDeviation="2"/>
      <feComposite in2="hardAlpha" operator="arithmetic" k2="-1" k3="1"/>
      <feColorMatrix type="matrix" values="0 0 0 0 0.956863 0 0 0 0 0.996078 0 0 0 0 1 0 0 0 1 0"/>
      <feBlend mode="normal" in2="shape" result="effect1_innerShadow_4193_204505"/>
    </filter>
    <filter id="filter2_i_4193_204505" x="24.25" y="32.0771" width="43.9807" height="83.313" filterUnits="userSpaceOnUse" color-interpolation-filters="sRGB">
      <feFlood flood-opacity="0" result="BackgroundImageFix"/>
      <feBlend mode="normal" in="SourceGraphic" in2="BackgroundImageFix" result="shape"/>
      <feColorMatrix in="SourceAlpha" type="matrix" values="0 0 0 0 0 0 0 0 0 0 0 0 0 0 0 0 0 0 127 0" result="hardAlpha"/>
      <feOffset dy="-2"/>
      <feGaussianBlur stdDeviation="2"/>
      <feComposite in2="hardAlpha" operator="arithmetic" k2="-1" k3="1"/>
      <feColorMatrix type="matrix" values="0 0 0 0 0.956863 0 0 0 0 0.996078 0 0 0 0 1 0 0 0 1 0"/>
      <feBlend mode="normal" in2="shape" result="effect1_innerShadow_4193_204505"/>
    </filter>
    <linearGradient id="paint0_linear_4193_204505" x1="80.3077" y1="24.6751" x2="80.3077" y2="106.893" gradientUnits="userSpaceOnUse">
      <stop stop-color="#49C755"/>
      <stop offset="0.985" stop-color="#0F9957"/>
    </linearGradient>
    <linearGradient id="paint1_linear_4193_204505" x1="39.1987" y1="65.7841" x2="121.417" y2="65.7841" gradientUnits="userSpaceOnUse">
      <stop stop-color="#49C755"/>
      <stop offset="0.985" stop-color="#0F9957"/>
    </linearGradient>
    <linearGradient id="paint2_linear_4193_204505" x1="80.4835" y1="52.4527" x2="80.4835" y2="112.833" gradientUnits="userSpaceOnUse">
      <stop stop-color="#3BC849"/>
      <stop offset="1" stop-color="#93EA8B"/>
    </linearGradient>
    <linearGradient id="paint3_linear_4193_204505" x1="114.336" y1="73.307" x2="104.092" y2="98.5662" gradientUnits="userSpaceOnUse">
      <stop stop-color="#8BFF90"/>
      <stop offset="1" stop-color="#72E284"/>
    </linearGradient>
    <linearGradient id="paint4_linear_4193_204505" x1="46.2404" y1="34.0771" x2="46.2404" y2="114.879" gradientUnits="userSpaceOnUse">
      <stop offset="0.111391" stop-color="#8DFF98"/>
      <stop offset="1" stop-color="#38B744"/>
    </linearGradient>
  </defs>
</svg>